PathFileType	3	(X/Y/Z)	D:\Jess\Healthy\Labelled\HA22\20251031\SRRun01.trc
DataRate	CameraRate	NumFrames	NumMarkers	Units	OrigDataRate	OrigDataStartFrame	OrigNumFrames
250.0	250.0	4	37	mm	250.0	36563	2501
Frame#	Time	C7			T10			CLAV			LSHO			RSHO			LASIS			RASIS			LPSIS			RPSIS			LILCR			RILCR			LGTR			LTHI			LLTHI			LLEP			LMEP			LPSH			LLSH			LDSH			LLMAL			LMMAL			LTOE			L5TH			LHEE			RGTR			RTHI			RLTHI			RLEP			RMEP			RPSH			RLSH			RDSH			RLMAL			RMMAL			RTOE			R5TH			RHEE			
		X1	Y1	Z1	X2	Y2	Z2	X3	Y3	Z3	X4	Y4	Z4	X5	Y5	Z5	X6	Y6	Z6	X7	Y7	Z7	X8	Y8	Z8	X9	Y9	Z9	X10	Y10	Z10	X11	Y11	Z11	X12	Y12	Z12	X13	Y13	Z13	X14	Y14	Z14	X15	Y15	Z15	X16	Y16	Z16	X17	Y17	Z17	X18	Y18	Z18	X19	Y19	Z19	X20	Y20	Z20	X21	Y21	Z21	X22	Y22	Z22	X23	Y23	Z23	X24	Y24	Z24	X25	Y25	Z25	X26	Y26	Z26	X27	Y27	Z27	X28	Y28	Z28	X29	Y29	Z29	X30	Y30	Z30	X31	Y31	Z31	X32	Y32	Z32	X33	Y33	Z33	X34	Y34	Z34	X35	Y35	Z35	X36	Y36	Z36	X37	Y37	Z37	

1564	146.248	805.4858412061349	1569.052763672834	-814.5359668787733	807.0455432841538	1321.358043945401	-737.341120160278	833.8793592312205	1472.82807489841	-958.1840123978174	653.3224964996795	1567.131150757758	-902.7639642230197	979.8598352831229	1569.183754086717	-855.1984983623017	719.0929160536526	1053.848858126163	-893.6897200580962	945.3697997883231	1064.043650617962	-881.5816224932659	806.83170643505	1096.428224660642	-701.7691797485448	849.5970168654177	1097.897548480282	-696.9420214313565	670.0393778051198	1129.843352527802	-829.6646199105967	992.3332635493557	1141.002091472731	-812.702492571078	652.4103673163471	907.4886958670262	-810.2881124889171	750.3788599890477	757.0500915822994	-876.3093488290004	685.769257752313	694.818528651261	-745.384834066271	713.3932115413382	549.2337456438086	-692.3273399813827	nan	nan	nan	773.8598893056936	423.2623988810263	-694.085258230542	723.1815897713102	361.6473762775407	-567.774121017309	786.6834476265293	261.2230242810204	-572.5937832323762	759.0011320119893	178.5896153771672	-451.5280063673466	nan	nan	nan	781.9021041429648	56.66806239311605	-567.4857130952118	737.2084067579982	50.83849119481443	-515.1293384733771	822.2524837440085	182.7054007495566	-360.9507021101178	1020.245400598758	930.3519846517662	-837.3020579643012	937.6644578780797	843.9448476847394	-1015.651073331452	1014.13314055035	749.8615459076143	-972.6948593075817	982.5387438954837	613.1235072088409	-1014.790166065939	nan	nan	nan	922.4822890814554	502.2162280723592	-984.7601196137948	984.6568889154447	506.9457269087739	-855.8631405414552	915.6995370124014	408.0243686859886	-809.4951464470065	952.4872361704423	375.1722345793451	-659.5805814190122	nan	nan	nan	937.1309683796748	220.7583380728074	-718.4965590317501	979.9381389977993	236.316516844801	-666.7713362563355	895.4086171475776	415.4070742957377	-578.7456788909719	
1565	146.252	805.7463875657974	1572.333798123695	-814.4771916200488	805.995172955206	1324.340504308036	-738.2606105928293	834.9486970104355	1476.951922964315	-958.0055647940794	654.2725465011786	1571.201908746963	-903.4963851543516	980.1435805206335	1572.666505179003	-853.8264469820492	719.2375070052902	1056.519223974216	-894.9868223411995	945.1062565809606	1068.015138516438	-882.3259001932304	806.6474245150974	1100.252564251406	-703.1613953558375	849.3093976855938	1101.907960265524	-698.0215419031326	670.4121675067063	1133.441288243803	-832.4167565306576	992.1295692734525	1145.432914106433	-813.2167370349506	652.4238249512536	910.5703194800068	-810.0554369183369	750.0368928835479	758.9891341337678	-873.7228398766082	684.8280375123886	699.0969367456202	-741.5051554906219	712.0919098250341	554.5773613277497	-685.3032010562775	nan	nan	nan	771.9901334916447	428.0324715944404	-686.5085194234856	721.7926943291955	366.8262604195685	-560.0166257499874	784.6638022921856	265.7013332233881	-565.5456353842542	757.4817910187392	182.8706503001787	-444.5781774048912	nan	nan	nan	781.3084251927761	56.97053479979574	-557.053243934366	736.7993778754081	52.15506977569697	-504.5849582442621	820.7278151906991	189.8217603464296	-354.8390793702248	1020.509786772145	935.1528056214959	-838.4968749271617	937.0511744048015	849.4893178507515	-1016.631613737203	1014.010690561509	755.1313514401588	-974.7572379632719	982.0788222359057	617.8115909201147	-1016.975964824024	nan	nan	nan	922.2555254977015	505.353206694556	-989.7064005026699	984.0604623848965	505.7329430150849	-860.5193398691945	915.2022803210531	405.284012123564	-817.7354896658517	951.705065866788	367.4628395409126	-668.8545373018358	nan	nan	nan	937.5128775317651	215.1904973858725	-733.3258114404895	979.9671524030147	229.1381706065364	-680.8279428827125	893.9672843107518	404.556877586857	-586.8502967773819	
1566	146.256	806.0209304828984	1575.551985998387	-814.4153669774314	804.9847409390782	1327.271893701703	-739.1941918907786	835.9748653176365	1481.025693840057	-957.811812230598	655.2229448143227	1575.219572436409	-904.1609673582039	980.4146898983829	1576.100229847805	-852.5381541317304	719.381273013488	1059.133344212452	-896.2950681915086	944.8246473911666	1071.921566185355	-883.1119211280744	806.4938687802818	1104.079872039741	-704.585779321086	849.0574666602242	1105.924406968139	-699.1392013017908	670.8058651254905	1137.049416269496	-835.0853924305192	991.9262053311958	1149.878735737975	-813.8713375281308	652.4246852153382	913.6441522891213	-809.88521557499	749.5647968126602	760.9092853544186	-871.2716742251498	683.8716027722753	703.4106816894732	-737.7408915039688	710.8026453987475	559.9792235308721	-678.5010133229708	nan	nan	nan	770.1148030756329	432.873207988	-679.2118417709977	720.3834898821137	372.051003573624	-552.5310699064041	782.6121044220104	270.2223189708662	-558.7886182048994	755.9079014504068	187.2023060794016	-437.9851712494099	nan	nan	nan	780.6848181222756	57.43807878310832	-546.7873487103253	736.365751566144	53.67068713002563	-494.2341775645859	819.0932389492077	197.0779970829967	-349.1294969081737	1020.757558268214	939.90357030346	-839.680761202193	936.4175631971328	854.8519901250595	-1017.553342929819	1013.867290402144	760.2462650710439	-976.6672885206035	981.6058422895178	622.2769232727615	-1018.850361339681	nan	nan	nan	922.0224269629953	508.3162582993171	-994.4380892624395	983.4808390701904	504.3003675812407	-865.1165848631065	914.717488085662	402.4324583219432	-825.9881748905377	950.9318787894601	359.6393670465098	-678.3172905240724	nan	nan	nan	937.8644111763521	209.684981042924	-748.2398086776699	979.9728477509418	221.9883831206803	-695.0296134668132	892.5529381411974	393.5670774343279	-595.2716041891512	
1567	146.26	806.3068818495301	1578.694655851661	-814.3517675057822	804.0175008941561	1330.142411599804	-740.137914857077	836.9592940791625	1485.03169171794	-957.6048848359198	656.1723168061252	1579.167376037336	-904.7628741805214	980.6740936829193	1579.472577706255	-851.3320456192207	719.5231976291877	1061.674807180016	-897.611246751653	944.5267704535457	1075.743305424495	-883.9327603728823	806.3594662282632	1107.894406840581	-706.0353665431161	848.8303999073188	1109.929513862105	-700.2890107770623	671.2138156844283	1140.642807860808	-837.6590156709731	991.7207520973376	1154.314096443604	-814.6575843555452	652.4117950105867	916.6920766980163	-809.7719715175334	748.9752049951493	762.7960223392993	-868.9433245276051	682.9133102429698	707.7362797977885	-734.0869677549272	709.5379911483594	565.4035431782173	-671.9290288620402	nan	nan	nan	768.2535214632376	437.752834747689	-672.2005299384757	718.9638272485497	377.2953244137734	-545.3220409771935	780.548264188258	274.7661618303434	-552.3079857706682	754.2859360997282	191.5764904845338	-431.7290963990737	nan	nan	nan	780.0275359902516	58.09349311214171	-536.693222013438	735.9060451081026	55.3997341932672	-484.0806272424812	817.3519526971377	204.4477536254342	-343.7993605743014	1020.986619843095	944.5845345422423	-840.8396624263269	935.7802096157616	860.0188214372077	-1018.422154711848	1013.687127773269	765.1803031593893	-978.4102345416585	981.1154303044942	626.4994142983265	-1020.412809660822	nan	nan	nan	921.7824683741867	511.0967262432553	-998.9580996062959	982.9244659987676	502.6465949424567	-869.6645012340742	914.2499262351456	399.4724366672518	-834.2529775412921	950.1763648221541	351.7111190611328	-687.9731449189036	nan	nan	nan	938.1760086398202	204.2471603896566	-763.2323943851942	979.9502056796197	214.8717228991711	-709.3762365081247	891.182808680577	382.4574601197986	-604.012305180603	
